<?xml version="1.0" encoding="UTF-8"?>
<svg id="Layer_1" data-name="Layer 1" xmlns="http://www.w3.org/2000/svg" viewBox="0 0 1200 536">
  <defs>
    <style>
      .cls-1, .cls-2 {
        stroke-width: 0px;
      }

      .cls-2 {
        fill: #794b35;
      }
    </style>
  </defs>
  <g>
    <g>
      <path class="cls-1" d="m237.56,356.72h-29.03l-87.31-132.12v132.12h-29.02v-177.17h29.02l87.31,131.86v-131.86h29.03v177.17Z"/>
      <path class="cls-1" d="m301.95,352.26c-9.5-4.14-16.97-10.04-22.4-17.68-5.44-7.64-8.15-16.56-8.15-26.74h31.06c.67,7.64,3.69,13.91,9.04,18.85,5.35,4.91,12.86,7.38,22.53,7.38s17.82-2.43,23.42-7.26c5.59-4.83,8.4-11.07,8.4-18.71,0-5.94-1.74-10.77-5.22-14.5-3.48-3.73-7.81-6.63-12.99-8.66-5.17-2.03-12.34-4.24-21.51-6.61-11.54-3.06-20.92-6.16-28.13-9.29-7.21-3.14-13.36-8.01-18.45-14.64-5.09-6.61-7.64-15.43-7.64-26.46,0-10.18,2.55-19.1,7.64-26.74,5.09-7.64,12.22-13.5,21.38-17.56,9.17-4.07,19.77-6.12,31.82-6.12,17.14,0,31.19,4.3,42.13,12.87,10.94,8.56,17.01,20.33,18.2,35.26h-32.08c-.51-6.45-3.56-11.98-9.17-16.56-5.59-4.58-12.99-6.87-22.14-6.87-8.32,0-15.12,2.11-20.37,6.35-5.27,4.24-7.89,10.36-7.89,18.33,0,5.43,1.65,9.89,4.96,13.36,3.31,3.49,7.51,6.24,12.6,8.29,5.09,2.03,12.05,4.24,20.88,6.61,11.7,3.22,21.25,6.45,28.63,9.67,7.38,3.24,13.66,8.19,18.84,14.9,5.18,6.71,7.76,15.65,7.76,26.86,0,9-2.42,17.48-7.25,25.46-4.83,7.97-11.88,14.39-21.13,19.22-9.25,4.84-20.15,7.24-32.71,7.24-11.88,0-22.58-2.07-32.08-6.24Z"/>
      <path class="cls-1" d="m458.26,179.81v112.76c0,13.42,3.52,23.5,10.57,30.29,7.04,6.79,16.84,10.18,29.4,10.18s22.61-3.39,29.66-10.18c7.04-6.79,10.56-16.87,10.56-30.29v-112.76h29.02v112.25c0,14.43-3.14,26.66-9.41,36.66-6.29,10.03-14.68,17.48-25.2,22.4-10.53,4.93-22.15,7.38-34.88,7.38s-24.31-2.45-34.75-7.38c-10.43-4.91-18.71-12.37-24.82-22.4-6.11-10-9.17-22.24-9.17-36.66v-112.25h29.02Z"/>
      <path class="cls-1" d="m785.62,333.3h59.82v23.42h-88.84v-176.91h29.02v153.49Z"/>
      <path class="cls-1" d="m1139.19,356.72h-32.58l-109.98-176.91h32.58l109.98,176.91Z"/>
    </g>
    <g>
      <path class="cls-2" d="m525.56,151.06c54.55-61.9,150.83-103.2,260.5-103.2,132.5,0,245.61,60.2,288.93,144.32l14.44-21.03c-51.04-85.99-167.74-146.29-303.36-146.29-124.78,0-233.55,51.06-289.91,126.2h29.41Z"/>
      <path class="cls-2" d="m1070.18,352.59c-46.47,79.51-156.27,135.55-284.13,135.55-110.18,0-206.84-41.68-261.26-104.05-8.55,2.03-17.47,3.15-26.76,3.16,56.85,73.85,164.54,123.9,288.02,123.9,130.68,0,243.79-56,297.52-137.01l-13.39-21.55Z"/>
    </g>
    <polygon class="cls-2" points="996.89 356.72 1029.21 356.72 1175 97.3 996.89 356.72"/>
    <g>
      <polygon class="cls-1" points="898.63 278.83 959.73 278.83 959.73 255.15 869.62 255.15 869.62 356.72 967.37 356.72 967.37 333.04 898.63 333.04 898.63 278.83"/>
      <rect class="cls-1" x="869.62" y="179.55" width="97.75" height="23.66"/>
    </g>
    <path class="cls-1" d="m721.86,205.76c-4.67-7.97-11.71-14.29-21.12-18.96-9.42-4.66-20.92-6.99-34.5-6.99h-61.1v23.66h61.1c21.9,0,32.84,9.67,32.84,29.03,0,9.16-2.71,16.24-8.14,21.25-5.44,5.01-13.67,7.52-24.7,7.52h-61.1v95.45h29.02v-71.79h32.08c14.59,0,26.56-2.51,35.9-7.5,9.32-5.01,16.12-11.5,20.37-19.48,4.23-7.97,6.36-16.46,6.36-25.46,0-9.85-2.34-18.75-7.01-26.74Z"/>
  </g>
  <g>
    <rect class="cls-1" x="25" y="237.84" width="29.02" height="118.88"/>
    <rect class="cls-2" x="25" y="179.81" width="29.02" height="29.02"/>
  </g>
</svg>