<svg width="22" height="18" viewBox="0 0 22 18" fill="none" xmlns="http://www.w3.org/2000/svg">
<path fill-rule="evenodd" clip-rule="evenodd" d="M11.4221 3.52966V5.49449H17.1489C18.0769 5.49449 18.8357 6.21191 18.8357 7.0893V9.10422H21.1292C21.3325 9.10422 21.5 9.26095 21.5 9.45485V13.5396C21.5 13.7319 21.3342 13.8903 21.1292 13.8903H18.8357V15.9052C18.8357 16.7826 18.0769 17.5 17.1489 17.5H4.67334C3.74536 17.5 2.98657 16.7826 2.98657 15.9052V13.8903H0.87085C0.665771 13.8903 0.5 13.7335 0.5 13.5413V9.45485C0.5 9.26257 0.665771 9.10422 0.87085 9.10422H2.98657V7.09091C2.98657 6.21353 3.74536 5.4961 4.67334 5.4961H10.4001V3.52966C9.74219 3.32606 9.2688 2.74275 9.2688 2.0528C9.2688 1.1948 10.0037 0.5 10.9111 0.5C11.8186 0.5 12.5535 1.1948 12.5535 2.0528C12.5535 2.74275 12.0784 3.32606 11.4221 3.52966ZM7.51196 13.3845H14.4863C14.8264 13.3845 15.105 13.6479 15.105 13.9694V14.2441C15.105 14.5657 14.8264 14.8291 14.4863 14.8291H7.51196C7.17188 14.8291 6.89331 14.5657 6.89331 14.2441V13.9694C6.89331 13.6463 7.17188 13.3845 7.51196 13.3845ZM13.9497 8.18967C14.8674 8.18967 15.6125 8.89255 15.6125 9.76186C15.6125 10.6296 14.8691 11.3324 13.9497 11.3324C13.0303 11.3324 12.2886 10.6296 12.2886 9.76186C12.2869 8.89255 13.032 8.18967 13.9497 8.18967ZM8.05029 8.18967C8.96802 8.18967 9.71143 8.89255 9.71143 9.76186C9.71143 10.6296 8.96802 11.3324 8.05029 11.3324C7.13257 11.3324 6.38916 10.6296 6.38916 9.76186C6.38916 8.89255 7.13257 8.18967 8.05029 8.18967Z" fill="#794B35"/>
</svg>
