<svg width="32" height="32" viewBox="0 0 32 32" fill="none" xmlns="http://www.w3.org/2000/svg">
<g clip-path="url(#clip0_2645_15521)">
<path d="M16 0C20.4181 0 24.4181 1.79125 27.3137 4.68625C30.2087 7.58125 32 11.5819 32 16C32 20.4181 30.2087 24.4187 27.3137 27.3137C24.4181 30.2087 20.4181 32 16 32C11.5819 32 7.58188 30.2087 4.68625 27.3137C1.79125 24.4181 0 20.4181 0 16C0 11.5819 1.79125 7.58188 4.68625 4.68625C7.58188 1.79125 11.5819 0 16 0ZM15.3775 10.0644C15.3775 9.79688 15.425 9.54812 15.5194 9.32C15.6131 9.09312 15.755 8.88625 15.9438 8.70063C16.1313 8.51625 16.3369 8.37562 16.5588 8.28187C16.7819 8.18812 17.0219 8.13937 17.2787 8.13937C17.5362 8.13937 17.7763 8.18812 17.9969 8.28125C18.2181 8.37562 18.4206 8.51625 18.6063 8.70187C18.7906 8.8875 18.9287 9.09313 19.0212 9.32125C19.1144 9.54813 19.16 9.79688 19.16 10.0644C19.16 10.325 19.1144 10.5694 19.0219 10.795C18.9294 11.02 18.7919 11.2288 18.6063 11.4181C18.4225 11.6075 18.22 11.7506 17.9988 11.8456C17.7775 11.94 17.5375 11.9888 17.2787 11.9888C17.015 11.9888 16.77 11.9412 16.5444 11.8475C16.3206 11.7531 16.1156 11.6106 15.93 11.4231C15.7463 11.2344 15.6075 11.0269 15.5156 10.8C15.4231 10.5738 15.3775 10.3287 15.3775 10.0644ZM16.215 21.1994C16.1456 21.4475 16.0056 21.9344 16.4212 21.9344C16.5112 21.9344 16.6256 21.8837 16.7625 21.7844C16.9106 21.6775 17.0806 21.515 17.2706 21.3C17.4637 21.0812 17.6656 20.8219 17.875 20.5238C18.0831 20.2262 18.3025 19.885 18.5306 19.5044C18.5537 19.4638 18.6075 19.45 18.6488 19.4744L19.4212 20.0481C19.4587 20.075 19.4669 20.1263 19.4431 20.1644C19.0875 20.7819 18.7281 21.3213 18.3644 21.7819C17.9987 22.245 17.6275 22.63 17.2519 22.9338L17.2456 22.9375C16.8694 23.2425 16.4838 23.4719 16.0888 23.6256C14.99 24.0513 13.2538 23.9819 12.7563 22.6987C12.4425 21.8888 12.7 20.9681 12.9475 20.1756L14.195 16.3981C14.275 16.1119 14.3756 15.7969 14.4119 15.5025C14.4725 15.0106 14.2563 14.6925 13.7206 14.6925H12.63C12.5825 14.6925 12.5437 14.6537 12.5437 14.6062L12.5487 14.5763L12.835 13.5337C12.845 13.495 12.8806 13.4688 12.9194 13.47L18.4894 13.2956C18.5369 13.2937 18.5775 13.3313 18.5794 13.3787L18.575 13.4056L16.215 21.1994ZM26.1087 5.89125C23.5219 3.30438 19.9475 1.70375 16 1.70375C12.0525 1.70375 8.47812 3.30438 5.89125 5.89125C3.30438 8.47812 1.70375 12.0525 1.70375 16C1.70375 19.9475 3.30438 23.5219 5.89125 26.1087C8.47812 28.6956 12.0525 30.2962 16 30.2962C19.9475 30.2962 23.5219 28.6956 26.1087 26.1087C28.6956 23.5219 30.2962 19.9475 30.2962 16C30.2962 12.0525 28.6956 8.47812 26.1087 5.89125Z" fill="#794B35"/>
</g>
<defs>
<clipPath id="clip0_2645_15521">
<rect width="32" height="32" fill="white"/>
</clipPath>
</defs>
</svg>
